<?xml version="1.0" encoding="UTF-8" standalone="no"?><!DOCTYPE svg PUBLIC "-//W3C//DTD SVG 1.1//EN" "http://www.w3.org/Graphics/SVG/1.1/DTD/svg11.dtd">
<svg width="100%" height="100%" viewBox="0 0 2245 459" version="1.1" xmlns="http://www.w3.org/2000/svg"  xml:space="preserve"  style="fill-rule:evenodd;clip-rule:evenodd;stroke-linejoin:round;stroke-miterlimit:1.41421;"><g id="g12"><path id="path14" d="M41.079,9.856c0,0 -40.975,-0.095 -40.975,50.742c0,3.321 -0.009,13.127 -0.009,26.99c3.905,46.526 13.447,91.824 29.749,133.716c22.971,-36.248 50.443,-69.184 84.004,-97.867c66.421,-56.89 155.87,-96.276 277.235,-113.581l-350.004,0Zm-41.079,265.775c6.63,-13.741 13.561,-27.235 21.191,-40.219c-8.745,-20.89 -15.679,-42.65 -21.154,-64.909c-0.028,36.265 -0.037,74.896 -0.037,105.128" style="fill:#94c337;fill-rule:nonzero;"/><path id="path16" d="M80.028,332.068c-15.964,-18.696 -29.646,-38.939 -41.315,-60.285c-14.868,28.156 -27.5,58.434 -38.602,90.424l0,85.544l277.435,0.499c-86.526,-20.772 -151.37,-62.072 -197.518,-116.182m356.84,-294.464c-138.841,13.22 -233.641,52.871 -301.569,110.896c-36.434,31.178 -65.323,67.955 -89.003,109.488c53.259,103.396 154.785,179.351 324.188,190.451l16.482,0.033c0,0 52.068,1.74 52.068,-56.144l0,-355.15c-0.69,0.161 -1.408,0.341 -2.166,0.426" style="fill:#163b57;fill-rule:nonzero;"/><path id="path18" d="M606.878,61.095c-31.339,0 -42.472,34.299 -42.472,65.751c0,30.99 10.122,65.081 42.472,65.081c32.555,0 42.261,-34.091 42.261,-65.081c0,-31.452 -10.933,-65.751 -42.261,-65.751m0,144.675c-42.472,0 -61.468,-35.167 -61.468,-78.487c0,-42.887 18.996,-78.51 61.468,-78.51c42.466,0 61.266,35.623 61.266,78.51c0,43.32 -18.8,78.487 -61.266,78.487" style="fill:#163b57;fill-rule:nonzero;"/><path id="path20" d="M720.956,94.954l0,107.966l-17.195,0l0,-107.966l-17.589,0l0,-10.542l17.589,0l0,-17.155c0,-21.552 12.75,-37.164 37.817,-37.164c1.828,0 4.039,0.225 4.039,0.225l0,10.99l-2.011,0c-11.928,0 -22.65,7.689 -22.65,23.963l0,19.141l24.661,0l0,10.542l-24.661,0" style="fill:#163b57;fill-rule:nonzero;"/><path id="path22" d="M791.944,94.954l0,107.966l-17.194,0l0,-107.966l-17.589,0l0,-10.542l17.589,0l0,-17.155c0,-21.552 12.75,-37.164 37.828,-37.164c1.816,0 4.028,0.225 4.028,0.225l0,10.99l-2.006,0c-11.933,0 -22.656,7.689 -22.656,23.963l0,19.141l24.662,0l0,10.542l-24.662,0" style="fill:#163b57;fill-rule:nonzero;"/><path id="path24" d="M836.25,84.409l17.389,0l0,118.518l-17.389,0l0,-118.518Zm8.7,-22.647c-6.061,0 -10.922,-4.634 -10.922,-10.554c0,-5.939 4.861,-10.77 10.922,-10.77c6.061,0 10.911,4.831 10.911,10.77c0,5.92 -4.85,10.554 -10.911,10.554" style="fill:#163b57;fill-rule:nonzero;"/><path id="path26" d="M927.667,205.774c-28.111,0 -49.761,-24.19 -49.761,-62.224c0,-38.707 21.65,-62.007 50.361,-62.007c14.35,0 23.855,3.962 28.916,8.133l-4.466,10.562c-3.828,-2.864 -11.1,-6.382 -20.606,-6.382c-24.067,0 -36.394,20.881 -36.394,49.041c0,29.012 14.155,49.693 35.783,49.693c8.906,0 16.178,-3.092 21.039,-6.391l4.644,11.441c-5.061,4.172 -15.166,8.134 -29.516,8.134" style="fill:#163b57;fill-rule:nonzero;"/><path id="path28" d="M1019.68,92.755c-19.216,0 -35.383,14.944 -35.189,48.145l67.334,-9.23c0,-27.488 -13.128,-38.915 -32.145,-38.915m-34.394,58.045c2.244,27.925 17.611,42.005 41.678,42.005c14.561,0 25.672,-3.743 32.144,-7.252l5.067,12.096c-7.489,4.169 -21.45,8.123 -38.439,8.123c-33.356,0 -57.017,-19.794 -57.017,-62.442c0,-40.672 21.839,-61.787 51.556,-61.787c30.139,0 48.544,18.476 48.544,58.042l-83.533,11.215" style="fill:#163b57;fill-rule:nonzero;"/><path id="path30" d="M1178.86,94.954l0,107.966l-17.194,0l0,-107.966l-17.589,0l0,-10.542l17.589,0l0,-17.155c0,-21.552 12.75,-37.164 37.827,-37.164c1.8,0 4.028,0.225 4.028,0.225l0,10.99l-2.011,0c-11.944,0 -22.65,7.689 -22.65,23.963l0,19.141l24.661,0l0,10.542l-24.661,0" style="fill:#163b57;fill-rule:nonzero;"/><path id="path32" d="M1266.41,93.196c-25.861,0 -33.35,26.176 -33.35,50.582c0,24.399 8.083,49.468 33.35,49.468c25.895,0 33.367,-25.069 33.367,-49.468c0,-24.406 -7.472,-50.582 -33.367,-50.582m0,112.581c-34.978,0 -50.939,-27.047 -50.939,-61.999c0,-34.97 15.961,-62.233 50.939,-62.233c35,0 50.783,27.263 50.783,62.233c0,34.952 -15.783,61.999 -50.783,61.999" style="fill:#163b57;fill-rule:nonzero;"/><path id="path34" d="M1391.83,95.397c-10.922,-2.854 -26.917,-2.42 -34.395,2.196l0,105.334l-17.383,0l0,-113.24c12.533,-5.287 25.083,-8.142 47.306,-8.142c3.05,0 7.088,0 8.916,0.217l-4.444,13.635" style="fill:#163b57;fill-rule:nonzero;"/><path id="path36" d="M645.906,442.756l-67.139,-103.59c-5.05,-7.689 -8.7,-15.367 -8.7,-15.367l-0.4,0c0,0 0.6,8.785 0.6,18.019l0,100.938l-22.036,0l0,-151.289l24.869,0l63.711,97.411c5.667,8.572 8.9,15.622 8.9,15.622l0.395,0c0,0 -0.806,-8.583 -0.806,-17.606l0,-95.427l22.244,0l0,151.289l-21.638,0" style="fill:#163b57;fill-rule:nonzero;"/><path id="path38" d="M761.8,377.211c-29.322,3.094 -48.939,8.589 -48.939,31.467c0,16.029 11.322,22.856 29.117,22.856c8.305,0 15.378,-1.762 19.822,-3.961l0,-50.362Zm-21.844,68.617c-34.762,0 -51.15,-13.86 -51.15,-36.51c0,-31.869 33.361,-40.462 72.994,-43.963l0,-6.816c0,-16.278 -11.122,-21.115 -27.3,-21.115c-11.517,0 -24.672,3.298 -32.144,6.831l-5.873,-14.52c8.295,-3.518 23.861,-8.579 42.661,-8.579c26.289,0 46.517,10.762 46.517,41.116l0,74.989c-10.111,5.074 -26.083,8.567 -45.705,8.567" style="fill:#163b57;fill-rule:nonzero;"/><path id="path40" d="M854.417,445.384c-24.873,0 -34.384,-16.062 -34.384,-32.101l0,-73.665l-16.577,0l0,-15.374l16.577,0l0,-26.61l25.289,-7.046l0,33.656l23.05,0l0,15.374l-23.05,0l0,72.343c0,9.228 5.445,16.472 16.167,16.472c2.422,0 4.455,-0.417 6.883,-1.077l0,15.606c-2.428,1.115 -7.489,2.422 -13.955,2.422" style="fill:#163b57;fill-rule:nonzero;"/><path id="path42" d="M888.211,324.244l25.467,0l0,118.518l-25.467,0l0,-118.518Zm12.728,-20.46c-8.095,0 -14.75,-5.922 -14.75,-13.186c0,-7.252 6.655,-13.2 14.75,-13.2c8.089,0 14.772,5.948 14.772,13.2c0,7.264 -6.683,13.186 -14.772,13.186" style="fill:#163b57;fill-rule:nonzero;"/><path id="path44" d="M989.717,337.417c-21.834,0 -28.311,22.873 -28.311,45.966c0,23.073 6.872,45.063 28.311,45.063c21.844,0 28.311,-21.99 28.311,-45.063c0,-23.093 -6.467,-45.966 -28.311,-45.966m0,108.416c-36.189,0 -54.184,-26.832 -54.184,-62.233c0,-35.393 17.995,-62.45 54.184,-62.45c36.189,0 53.989,27.057 53.989,62.45c0,35.401 -17.8,62.233 -53.989,62.233" style="fill:#163b57;fill-rule:nonzero;"/><path id="path46" d="M1137.77,442.756l0,-84.666c0,-15.178 -12.95,-20.907 -27.5,-20.907c-7.889,0 -15.583,1.551 -20.439,3.529l0,102.044l-25.266,0l0,-113.028c11.122,-4.828 28.511,-8.568 47.122,-8.568c30.922,0 51.555,10.534 51.555,36.496l0,85.1l-25.472,0" style="fill:#163b57;fill-rule:nonzero;"/><path id="path48" d="M1256.28,377.211c-29.328,3.094 -48.939,8.589 -48.939,31.467c0,16.029 11.339,22.856 29.133,22.856c8.295,0 15.361,-1.762 19.806,-3.961l0,-50.362Zm-21.834,68.617c-34.783,0 -51.161,-13.86 -51.161,-36.51c0,-31.869 33.373,-40.462 72.995,-43.963l0,-6.816c0,-16.278 -11.1,-21.115 -27.284,-21.115c-11.516,0 -24.688,3.298 -32.15,6.831l-5.872,-14.52c8.289,-3.518 23.85,-8.579 42.656,-8.579c26.289,0 46.516,10.762 46.516,41.116l0,74.989c-10.105,5.074 -26.088,8.567 -45.7,8.567" style="fill:#163b57;fill-rule:nonzero;"/><path id="path50" d="M1306.26,442.756l0,-172.611l25.277,0l0,172.611l-25.277,0" style="fill:#163b57;fill-rule:nonzero;"/><path id="path52" d="M1451.87,445.828c-18.206,0 -32.956,-3.984 -41.228,-8.567l7.061,-18.488c6.061,3.516 17.389,7.255 29.106,7.255c17.588,0 30.138,-10.317 30.138,-25.278c0,-33.211 -62.905,-20.438 -62.905,-67.5c0,-23.984 19.428,-44.88 50.161,-44.88c16.378,0 29.311,4.425 36.406,8.598l-6.467,16.477c-5.467,-3.289 -15.983,-7.033 -26.5,-7.033c-16.367,0 -27.089,9.901 -27.089,23.982c0,32.529 64.3,18.451 64.3,68.568c0,26.849 -22.039,46.866 -52.983,46.866" style="fill:#163b57;fill-rule:nonzero;"/><path id="path54" d="M1568.98,445.384c-24.861,0 -34.394,-16.062 -34.394,-32.101l0,-73.665l-16.567,0l0,-15.374l16.567,0l0,-26.61l25.289,-7.046l0,33.656l23.055,0l0,15.374l-23.055,0l0,72.343c0,9.228 5.466,16.472 16.178,16.472c2.433,0 4.455,-0.417 6.877,-1.077l0,15.606c-2.422,1.115 -7.483,2.422 -13.95,2.422" style="fill:#163b57;fill-rule:nonzero;"/><path id="path56" d="M1669.69,377.211c-29.322,3.094 -48.938,8.589 -48.938,31.467c0,16.029 11.338,22.856 29.116,22.856c8.295,0 15.378,-1.762 19.822,-3.961l0,-50.362Zm-21.844,68.617c-34.789,0 -51.15,-13.86 -51.15,-36.51c0,-31.869 33.372,-40.462 72.994,-43.963l0,-6.816c0,-16.278 -11.122,-21.115 -27.3,-21.115c-11.516,0 -24.683,3.298 -32.161,6.831l-5.855,-14.52c8.311,-3.518 23.861,-8.579 42.666,-8.579c26.284,0 46.517,10.762 46.517,41.116l0,74.989c-10.117,5.074 -26.1,8.567 -45.711,8.567" style="fill:#163b57;fill-rule:nonzero;"/><path id="path58" d="M1762.33,445.384c-24.872,0 -34.395,-16.062 -34.395,-32.101l0,-73.665l-16.566,0l0,-15.374l16.566,0l0,-26.61l25.278,-7.046l0,33.656l23.056,0l0,15.374l-23.056,0l0,72.343c0,9.228 5.461,16.472 16.178,16.472c2.422,0 4.455,-0.417 6.878,-1.077l0,15.606c-2.423,1.115 -7.473,2.422 -13.939,2.422" style="fill:#163b57;fill-rule:nonzero;"/><path id="path60" d="M1796.08,324.244l25.489,0l0,118.518l-25.489,0l0,-118.518Zm12.739,-20.46c-8.078,0 -14.75,-5.922 -14.75,-13.186c0,-7.252 6.672,-13.2 14.75,-13.2c8.095,0 14.784,5.948 14.784,13.2c0,7.264 -6.689,13.186 -14.784,13.186" style="fill:#163b57;fill-rule:nonzero;"/><path id="path62" d="M1876.79,445.828c-14.745,0 -28.722,-4.173 -35.783,-8.567l6.666,-16.283c5.056,3.516 15.167,7.027 25.878,7.027c12.956,0 23.272,-8.348 23.272,-18.444c0,-28.159 -51.972,-14.978 -51.972,-53.665c0,-17.607 15.767,-34.74 41.45,-34.74c14.556,0 25.289,3.744 33.356,8.583l-6.662,14.705c-3.866,-2.626 -11.733,-6.806 -21.627,-6.806c-13.15,0 -21.245,7.912 -21.245,16.934c0,26.395 52.972,14.722 52.972,54.316c0,18.907 -17.983,36.94 -46.305,36.94" style="fill:#163b57;fill-rule:nonzero;"/><path id="path64" d="M1987.46,445.384c-24.867,0 -34.395,-16.062 -34.395,-32.101l0,-73.665l-16.594,0l0,-15.374l16.594,0l0,-26.61l25.3,-7.046l0,33.656l23.045,0l0,15.374l-23.045,0l0,72.343c0,9.228 5.433,16.472 16.178,16.472c2.405,0 4.439,-0.417 6.867,-1.077l0,15.606c-2.428,1.115 -7.5,2.422 -13.95,2.422" style="fill:#163b57;fill-rule:nonzero;"/><path id="path66" d="M2021.23,324.244l25.483,0l0,118.518l-25.483,0l0,-118.518Zm12.728,-20.46c-8.078,0 -14.745,-5.922 -14.745,-13.186c0,-7.252 6.667,-13.2 14.745,-13.2c8.1,0 14.8,5.948 14.8,13.2c0,7.264 -6.7,13.186 -14.8,13.186" style="fill:#163b57;fill-rule:nonzero;"/><path id="path68" d="M2119.92,445.828c-29.123,0 -51.367,-23.76 -51.367,-62.439c0,-39.134 22.867,-62.233 51.567,-62.233c14.772,0 24.672,4.167 30.327,8.583l-5.655,14.273c-3.633,-2.628 -10.111,-5.723 -18.595,-5.723c-20.633,0 -31.355,17.817 -31.355,44.428c0,27.061 12.35,44.85 30.933,44.85c8.106,0 14.184,-2.867 18.6,-5.94l6.278,15.634c-5.256,4.394 -15.567,8.567 -30.733,8.567" style="fill:#163b57;fill-rule:nonzero;"/><path id="path70" d="M2197.79,445.828c-14.761,0 -28.738,-4.173 -35.8,-8.567l6.673,-16.283c5.05,3.516 15.161,7.027 25.883,7.027c12.928,0 23.256,-8.348 23.256,-18.444c0,-28.159 -51.956,-14.978 -51.956,-53.665c0,-17.607 15.767,-34.74 41.428,-34.74c14.583,0 25.3,3.744 33.383,8.583l-6.683,14.705c-3.823,-2.626 -11.728,-6.806 -21.628,-6.806c-13.144,0 -21.25,7.912 -21.25,16.934c0,26.395 52.994,14.722 52.994,54.316c0,18.907 -17.989,36.94 -46.3,36.94" style="fill:#163b57;fill-rule:nonzero;"/></g></svg>