<?xml version="1.0" encoding="utf-8"?>
<!-- Generator: Adobe Illustrator 21.1.0, SVG Export Plug-In . SVG Version: 6.00 Build 0)  -->
<svg version="1.1" id="Layer_1" xmlns="http://www.w3.org/2000/svg" xmlns:xlink="http://www.w3.org/1999/xlink" x="0px" y="0px"
	 viewBox="0 0 320 200" style="enable-background:new 0 0 320 200;" xml:space="preserve">
<style type="text/static.css">
	.st0{clip-path:url(#SVGID_2_);}
	.st1{clip-path:url(#SVGID_4_);fill:#008080;}
	.st2{clip-path:url(#SVGID_6_);}
	.st3{clip-path:url(#SVGID_8_);fill:#E3DCCC;}
	.st4{clip-path:url(#SVGID_10_);}
	.st5{clip-path:url(#SVGID_12_);fill:#E3DCCC;}
	.st6{clip-path:url(#SVGID_14_);}
	.st7{clip-path:url(#SVGID_16_);fill:#C1BBAE;}
	.st8{clip-path:url(#SVGID_18_);}
	.st9{clip-path:url(#SVGID_20_);fill:#79CF73;}
	.st10{clip-path:url(#SVGID_22_);}
	.st11{clip-path:url(#SVGID_24_);fill:#79CF73;}
	.st12{clip-path:url(#SVGID_26_);}
	.st13{clip-path:url(#SVGID_28_);fill:#53A94D;}
	.st14{clip-path:url(#SVGID_30_);}
	.st15{clip-path:url(#SVGID_32_);enable-background:new    ;}
	.st16{clip-path:url(#SVGID_34_);}
	.st17{clip-path:url(#SVGID_36_);}
	.st18{clip-path:url(#SVGID_38_);fill:#FFFFFF;}
	.st19{clip-path:url(#SVGID_40_);}
	.st20{clip-path:url(#SVGID_42_);enable-background:new    ;}
	.st21{clip-path:url(#SVGID_44_);}
	.st22{clip-path:url(#SVGID_46_);}
	.st23{clip-path:url(#SVGID_48_);fill:#FFFFFF;}
	.st24{clip-path:url(#SVGID_50_);}
	.st25{clip-path:url(#SVGID_52_);enable-background:new    ;}
	.st26{clip-path:url(#SVGID_54_);}
	.st27{clip-path:url(#SVGID_56_);}
	.st28{clip-path:url(#SVGID_58_);fill:#FFFFFF;}
	.st29{clip-path:url(#SVGID_60_);}
	.st30{clip-path:url(#SVGID_62_);enable-background:new    ;}
	.st31{clip-path:url(#SVGID_64_);}
	.st32{clip-path:url(#SVGID_66_);}
	.st33{clip-path:url(#SVGID_68_);fill:#F8E71C;}
</style>
<g>
	<defs>
		<rect id="SVGID_1_" width="320" height="200"/>
	</defs>
	<clipPath id="SVGID_2_">
		<use xlink:href="#SVGID_1_"  style="overflow:visible;"/>
	</clipPath>
	<g class="st0">
		<defs>
			<rect id="SVGID_3_" x="-94" y="-322.7" width="1176" height="838.2"/>
		</defs>
		<clipPath id="SVGID_4_">
			<use xlink:href="#SVGID_3_"  style="overflow:visible;"/>
		</clipPath>
		<rect x="-5" y="-4.5" class="st1" width="330" height="209.1"/>
	</g>
</g>
<g>
	<defs>
		<path id="SVGID_5_" d="M216.1,84.8c-12.1-4.1-24.1-8.3-36.2-12.4c-3,29.2-3.8,58.3,0,87.3c12.1,4.1,24.1,8.3,36.2,12.4V84.8z"/>
	</defs>
	<clipPath id="SVGID_6_">
		<use xlink:href="#SVGID_5_"  style="overflow:visible;"/>
	</clipPath>
	<g class="st2">
		<defs>
			<rect id="SVGID_7_" x="-68.5" y="-318.7" width="1058.4" height="829.8"/>
		</defs>
		<clipPath id="SVGID_8_">
			<use xlink:href="#SVGID_7_"  style="overflow:visible;"/>
		</clipPath>
		<rect x="172.9" y="67.9" class="st3" width="47.7" height="108.6"/>
	</g>
</g>
<g>
	<defs>
		<path id="SVGID_9_" d="M141.2,85.7c-12.1-4.1-24.1-8.3-36.2-12.4v87.3c12.1,4.1,24.1,8.3,36.2,12.4
			C145.7,143.8,145.7,114.7,141.2,85.7"/>
	</defs>
	<clipPath id="SVGID_10_">
		<use xlink:href="#SVGID_9_"  style="overflow:visible;"/>
	</clipPath>
	<g class="st4">
		<defs>
			<rect id="SVGID_11_" x="-68.5" y="-318.7" width="1058.4" height="829.8"/>
		</defs>
		<clipPath id="SVGID_12_">
			<use xlink:href="#SVGID_11_"  style="overflow:visible;"/>
		</clipPath>
		<rect x="100.5" y="68.8" class="st5" width="48.6" height="108.6"/>
	</g>
</g>
<g>
	<defs>
		<polygon id="SVGID_13_" points="180,72.4 141.2,85.7 141.2,173 180,159.7 		"/>
	</defs>
	<clipPath id="SVGID_14_">
		<use xlink:href="#SVGID_13_"  style="overflow:visible;"/>
	</clipPath>
	<g class="st6">
		<defs>
			<rect id="SVGID_15_" x="-68.5" y="-318.7" width="1058.4" height="829.8"/>
		</defs>
		<clipPath id="SVGID_16_">
			<use xlink:href="#SVGID_15_"  style="overflow:visible;"/>
		</clipPath>
		<rect x="136.7" y="67.9" class="st7" width="47.8" height="109.5"/>
	</g>
</g>
<g>
	<defs>
		<path id="SVGID_17_" d="M180,109.9c12.1,9.8,24.2,19.5,36.3,29.3c0,10.9-0.1,21.9-0.1,32.8c-12.1-4.1-24.1-8.3-36.2-12.4
			C177.1,143,176.8,126.4,180,109.9"/>
	</defs>
	<clipPath id="SVGID_18_">
		<use xlink:href="#SVGID_17_"  style="overflow:visible;"/>
	</clipPath>
	<g class="st8">
		<defs>
			<rect id="SVGID_19_" x="-68.5" y="-318.7" width="1058.4" height="829.8"/>
		</defs>
		<clipPath id="SVGID_20_">
			<use xlink:href="#SVGID_19_"  style="overflow:visible;"/>
		</clipPath>
		<rect x="173.2" y="105.4" class="st9" width="47.5" height="71.1"/>
	</g>
</g>
<g>
	<defs>
		<path id="SVGID_21_" d="M117.6,164.9c6.4-8.2,12.8-16.4,19.1-24.6c1.5-0.7,3-1.3,4.5-2c4.3,11.4,3.6,23,0,34.6
			C133.3,170.3,125.5,167.6,117.6,164.9"/>
	</defs>
	<clipPath id="SVGID_22_">
		<use xlink:href="#SVGID_21_"  style="overflow:visible;"/>
	</clipPath>
	<g class="st10">
		<defs>
			<rect id="SVGID_23_" x="-68.5" y="-318.7" width="1058.4" height="829.8"/>
		</defs>
		<clipPath id="SVGID_24_">
			<use xlink:href="#SVGID_23_"  style="overflow:visible;"/>
		</clipPath>
		<rect x="113.1" y="133.8" class="st11" width="35.6" height="43.6"/>
	</g>
</g>
<g>
	<defs>
		<polygon id="SVGID_25_" points="141.2,138.3 167.9,108.5 180,110 180,159.7 141.2,173 		"/>
	</defs>
	<clipPath id="SVGID_26_">
		<use xlink:href="#SVGID_25_"  style="overflow:visible;"/>
	</clipPath>
	<g class="st12">
		<defs>
			<rect id="SVGID_27_" x="-68.5" y="-318.7" width="1058.4" height="829.8"/>
		</defs>
		<clipPath id="SVGID_28_">
			<use xlink:href="#SVGID_27_"  style="overflow:visible;"/>
		</clipPath>
		<rect x="136.7" y="104" class="st13" width="47.8" height="73.5"/>
	</g>
</g>
<g>
	<defs>
		<rect id="SVGID_29_" x="178.8" y="69.8" width="39.9" height="105.7"/>
	</defs>
	<clipPath id="SVGID_30_">
		<use xlink:href="#SVGID_29_"  style="overflow:visible;"/>
	</clipPath>
	<g class="st14">
		<defs>
			<rect id="SVGID_31_" x="-68.5" y="-318.7" width="1058.4" height="829.8"/>
		</defs>
		<clipPath id="SVGID_32_">
			<use xlink:href="#SVGID_31_"  style="overflow:visible;"/>
		</clipPath>
		<g class="st15">
			<g>
				<defs>
					<rect id="SVGID_33_" x="178.1" y="69.2" width="41.4" height="107.1"/>
				</defs>
				<clipPath id="SVGID_34_">
					<use xlink:href="#SVGID_33_"  style="overflow:visible;"/>
				</clipPath>
				<g class="st16">
					<defs>
						<path id="SVGID_35_" d="M213.6,86.5c-0.3-0.1-0.7-0.2-1-0.3c-10.9,4.7-21.7,9.5-32.6,14.2c-1.6-3.1-1.4-6.8,0-10.9
							c6.2-2.7,12.4-5.4,18.6-8.1c-6.2-2.1-12.4-4.2-18.6-6.4c-0.7-1.7-0.7-3.4,0-5.2c12.9,4.4,25.8,8.8,38.8,13.3v92.4
							c-12.9-4.4-25.8-8.8-38.8-13.3v-5.2c11.2,3.8,22.4,7.7,33.6,11.5v-28.2c-11.2-9-22.4-18.1-33.6-27.1c-1.8-2.1-1.4-4.3,0-6.6
							c11.2,9,22.4,18.1,33.6,27.1V86.5z"/>
					</defs>
					<clipPath id="SVGID_36_">
						<use xlink:href="#SVGID_35_"  style="overflow:visible;"/>
					</clipPath>
					<g class="st17">
						<defs>
							<rect id="SVGID_37_" x="178.1" y="69.2" width="41.4" height="107.1"/>
						</defs>
						<clipPath id="SVGID_38_">
							<use xlink:href="#SVGID_37_"  style="overflow:visible;"/>
						</clipPath>
						<rect x="174.3" y="65.3" class="st18" width="48.9" height="114.7"/>
					</g>
				</g>
			</g>
		</g>
	</g>
</g>
<g>
	<defs>
		<rect id="SVGID_39_" x="102.5" y="69.8" width="39.8" height="105.7"/>
	</defs>
	<clipPath id="SVGID_40_">
		<use xlink:href="#SVGID_39_"  style="overflow:visible;"/>
	</clipPath>
	<g class="st19">
		<defs>
			<rect id="SVGID_41_" x="-68.5" y="-318.7" width="1058.4" height="829.8"/>
		</defs>
		<clipPath id="SVGID_42_">
			<use xlink:href="#SVGID_41_"  style="overflow:visible;"/>
		</clipPath>
		<g class="st20">
			<g>
				<defs>
					<rect id="SVGID_43_" x="102.5" y="69.2" width="40.5" height="107.1"/>
				</defs>
				<clipPath id="SVGID_44_">
					<use xlink:href="#SVGID_43_"  style="overflow:visible;"/>
				</clipPath>
				<g class="st21">
					<defs>
						<path id="SVGID_45_" d="M141.2,83.1v5.2c-11.2-3.8-22.4-7.7-33.6-11.5v18c9.5,13.4,19,26.8,28.5,40.3c1.7-0.7,3.4-1.5,5.1-2.2
							c1.5,2.7,1.3,6.5,0,10.9c-0.4,0.2-0.8,0.4-1.3,0.5c-5.2,6.7-10.5,13.5-15.7,20.2c5.7,1.9,11.3,3.9,17,5.8v5.2
							c-12.9-4.4-25.8-8.8-38.8-13.3V69.8C115.4,74.3,128.3,78.7,141.2,83.1 M107.6,103.6v55.3c2.2,0.7,4.3,1.5,6.5,2.2
							c6-7.7,11.9-15.3,17.9-23C123.9,126.6,115.8,115.1,107.6,103.6"/>
					</defs>
					<clipPath id="SVGID_46_">
						<use xlink:href="#SVGID_45_"  style="overflow:visible;"/>
					</clipPath>
					<g class="st22">
						<defs>
							<rect id="SVGID_47_" x="102.5" y="69.2" width="40.5" height="107.1"/>
						</defs>
						<clipPath id="SVGID_48_">
							<use xlink:href="#SVGID_47_"  style="overflow:visible;"/>
						</clipPath>
						<rect x="98" y="65.3" class="st23" width="48.8" height="114.7"/>
					</g>
				</g>
			</g>
		</g>
	</g>
</g>
<g>
	<defs>
		<rect id="SVGID_49_" x="141.2" y="69.8" width="38.8" height="105.7"/>
	</defs>
	<clipPath id="SVGID_50_">
		<use xlink:href="#SVGID_49_"  style="overflow:visible;"/>
	</clipPath>
	<g class="st24">
		<defs>
			<rect id="SVGID_51_" x="-68.5" y="-318.7" width="1058.4" height="829.8"/>
		</defs>
		<clipPath id="SVGID_52_">
			<use xlink:href="#SVGID_51_"  style="overflow:visible;"/>
		</clipPath>
		<g class="st25">
			<g>
				<defs>
					<rect id="SVGID_53_" x="141.2" y="69.2" width="39.6" height="107.1"/>
				</defs>
				<clipPath id="SVGID_54_">
					<use xlink:href="#SVGID_53_"  style="overflow:visible;"/>
				</clipPath>
				<g class="st26">
					<defs>
						<path id="SVGID_55_" d="M180,100.4l-5,5.6l5,0.6v6.6l-10.4-1.3l-28.4,31.7v-10.9L180,89.5V100.4z M180,69.8V75l-38.8,13.3
							v-5.2L180,69.8z M180,157.1v5.2l-38.8,13.3v-5.2L180,157.1z"/>
					</defs>
					<clipPath id="SVGID_56_">
						<use xlink:href="#SVGID_55_"  style="overflow:visible;"/>
					</clipPath>
					<g class="st27">
						<defs>
							<rect id="SVGID_57_" x="141.2" y="69.2" width="39.6" height="107.1"/>
						</defs>
						<clipPath id="SVGID_58_">
							<use xlink:href="#SVGID_57_"  style="overflow:visible;"/>
						</clipPath>
						<rect x="136.7" y="65.3" class="st28" width="47.8" height="114.7"/>
					</g>
				</g>
			</g>
		</g>
	</g>
</g>
<g>
	<defs>
		<rect id="SVGID_59_" x="132.3" y="19.7" width="56.5" height="80.6"/>
	</defs>
	<clipPath id="SVGID_60_">
		<use xlink:href="#SVGID_59_"  style="overflow:visible;"/>
	</clipPath>
	<g class="st29">
		<defs>
			<rect id="SVGID_61_" x="-68.5" y="-318.7" width="1058.4" height="829.8"/>
		</defs>
		<clipPath id="SVGID_62_">
			<use xlink:href="#SVGID_61_"  style="overflow:visible;"/>
		</clipPath>
		<g class="st30">
			<g>
				<defs>
					<rect id="SVGID_63_" x="132.2" y="19.7" width="56.7" height="81"/>
				</defs>
				<clipPath id="SVGID_64_">
					<use xlink:href="#SVGID_63_"  style="overflow:visible;"/>
				</clipPath>
				<g class="st31">
					<defs>
						<path id="SVGID_65_" d="M160.6,20.5c-15.6,0-28.2,12.6-28.2,28.2c0,21.2,28.2,52.4,28.2,52.4s28.2-31.2,28.2-52.4
							C188.8,33.1,176.2,20.5,160.6,20.5 M160.6,58.8c-5.6,0-10.1-4.5-10.1-10.1c0-5.6,4.5-10.1,10.1-10.1s10.1,4.5,10.1,10.1
							C170.6,54.2,166.1,58.8,160.6,58.8"/>
					</defs>
					<clipPath id="SVGID_66_">
						<use xlink:href="#SVGID_65_"  style="overflow:visible;"/>
					</clipPath>
					<g class="st32">
						<defs>
							<rect id="SVGID_67_" x="132.2" y="19.7" width="56.7" height="81"/>
						</defs>
						<clipPath id="SVGID_68_">
							<use xlink:href="#SVGID_67_"  style="overflow:visible;"/>
						</clipPath>
						<rect x="127.8" y="16" class="st33" width="65.5" height="89.6"/>
					</g>
				</g>
			</g>
		</g>
	</g>
</g>
</svg>
