<?xml version="1.0" encoding="utf-8"?>
<!-- Generator: Adobe Illustrator 21.1.0, SVG Export Plug-In . SVG Version: 6.00 Build 0)  -->
<svg version="1.1" id="Layer_1" xmlns="http://www.w3.org/2000/svg" xmlns:xlink="http://www.w3.org/1999/xlink" x="0px" y="0px"
	 viewBox="0 0 2021.1 1313.3" style="enable-background:new 0 0 2021.1 1313.3;" xml:space="preserve">
<style type="text/static.css">
	.st0{fill:none;stroke:#B3B3B3;stroke-miterlimit:10;}
	.st1{fill:none;stroke:#36ADD9;stroke-width:11;stroke-linecap:round;stroke-linejoin:round;stroke-miterlimit:10;}
	.st2{fill:#FFFFFF;stroke:#36ADD9;stroke-width:11;stroke-linecap:round;stroke-linejoin:round;stroke-miterlimit:10;}
	.st3{fill:#212121;}
	.st4{font-family:'Lato-Regular';}
	.st5{font-size:46px;}
</style>
<line class="st0" x1="200.3" y1="513.3" x2="2002.1" y2="513.3"/>
<line class="st0" x1="209.3" y1="513.3" x2="232.9" y2="513.3"/>
<line class="st0" x1="200.3" y1="377.8" x2="2002.1" y2="377.8"/>
<line class="st0" x1="200.3" y1="243.1" x2="2002.1" y2="243.1"/>
<line class="st0" x1="200.3" y1="107" x2="2002.1" y2="107"/>
<line class="st0" x1="200.3" y1="648.7" x2="2002.1" y2="648.7"/>
<line class="st0" x1="200.3" y1="919.5" x2="2002.1" y2="919.5"/>
<line class="st0" x1="200.3" y1="784.1" x2="2002.1" y2="784.1"/>
<line class="st0" x1="200.3" y1="1055" x2="2002.1" y2="1055"/>
<g>
</g>
<line class="st0" x1="201.3" y1="1190.1" x2="2004.1" y2="1190.1"/>
<g>
	<g>
		<line class="st0" x1="284.7" y1="1190.1" x2="284.7" y2="1169"/>
		<line class="st0" x1="487.7" y1="1190.1" x2="487.7" y2="1169"/>
		<line class="st0" x1="690.7" y1="1190.1" x2="690.7" y2="1169"/>
		<line class="st0" x1="893.7" y1="1190.1" x2="893.7" y2="1169"/>
		<line class="st0" x1="1096.6" y1="1190.1" x2="1096.6" y2="1169"/>
		<line class="st0" x1="1299.6" y1="1190.1" x2="1299.6" y2="1169"/>
		<line class="st0" x1="1502.6" y1="1190.1" x2="1502.6" y2="1169"/>
		<line class="st0" x1="1705.6" y1="1190.1" x2="1705.6" y2="1169"/>
		<line class="st0" x1="1908.6" y1="1190.1" x2="1908.6" y2="1169"/>
	</g>
	<g>
	</g>
</g>
<g>
	<g>
		<g>
			<line class="st1" x1="491.7" y1="321" x2="288.8" y2="353.5"/>
			<line class="st1" x1="694.7" y1="280.3" x2="491.7" y2="321"/>
			<line class="st1" x1="897.7" y1="188.2" x2="694.7" y2="280.3"/>
			<line class="st1" x1="1100.7" y1="402.2" x2="897.7" y2="188.2"/>
			<line class="st1" x1="1303.7" y1="429.3" x2="1100.7" y2="402.2"/>
			<line class="st1" x1="1506.6" y1="404.9" x2="1303.7" y2="429.3"/>
			<line class="st1" x1="1709.6" y1="386" x2="1506.6" y2="404.9"/>
			<line class="st1" x1="1912.6" y1="483.5" x2="1709.6" y2="386"/>
		</g>
	</g>
</g>
<circle class="st2" cx="288.8" cy="353.5" r="17"/>
<circle class="st2" cx="487.7" cy="321" r="17"/>
<circle class="st2" cx="690.7" cy="280.3" r="17"/>
<circle class="st2" cx="893.7" cy="188.2" r="17"/>
<circle class="st2" cx="1096.6" cy="400.3" r="17"/>
<circle class="st2" cx="1303.7" cy="429.3" r="17"/>
<circle class="st2" cx="1502.6" cy="404.9" r="17"/>
<circle class="st2" cx="1705.6" cy="384.3" r="17"/>
<circle class="st2" cx="1908.6" cy="483.5" r="17"/>
<text transform="matrix(1 0 0 1 93.9753 47)" class="st3 st4 st5">Number of jobs</text>
<text transform="matrix(1 0 0 1 94.0774 122)" class="st3 st4 st5">400</text>
<text transform="matrix(1 0 0 1 94.0774 258.3333)" class="st3 st4 st5">350</text>
<text transform="matrix(1 0 0 1 94.0774 392.445)" class="st3 st4 st5">300</text>
<text transform="matrix(1 0 0 1 94.0774 527.445)" class="st3 st4 st5">250</text>
<text transform="matrix(1 0 0 1 94.0774 664.6602)" class="st3 st4 st5">200</text>
<text transform="matrix(1 0 0 1 94.0774 800.6602)" class="st3 st4 st5">150</text>
<text transform="matrix(1 0 0 1 94.0774 933.6602)" class="st3 st4 st5">100</text>
<text transform="matrix(1 0 0 1 115.4172 1066.6602)" class="st3 st4 st5">50</text>
<text transform="matrix(1 0 0 1 137.7566 1203.6602)" class="st3 st4 st5">0</text>
<text transform="matrix(1 0 0 1 253.0192 1252.6602)"><tspan x="0" y="0" class="st3 st4 st5">Q1</tspan><tspan x="-21.7" y="55.2" class="st3 st4 st5">2016</tspan></text>
<text transform="matrix(1 0 0 1 456.0003 1252.6602)" class="st3 st4 st5">Q2</text>
<text transform="matrix(1 0 0 1 658.9817 1252.6602)" class="st3 st4 st5">Q3</text>
<text transform="matrix(1 0 0 1 866.006 1252.6602)" class="st3 st4 st5">Q4</text>
<text transform="matrix(1 0 0 1 1066.9662 1252.6602)"><tspan x="0" y="0" class="st3 st4 st5">Q1</tspan><tspan x="-21.7" y="55.2" class="st3 st4 st5">2017</tspan></text>
<text transform="matrix(1 0 0 1 1880.9122 1252.6602)"><tspan x="0" y="0" class="st3 st4 st5">Q1</tspan><tspan x="-21.7" y="55.2" class="st3 st4 st5">2018</tspan></text>
<text transform="matrix(1 0 0 1 1269.9474 1252.6602)" class="st3 st4 st5">Q2</text>
<text transform="matrix(1 0 0 1 1472.9287 1252.6602)" class="st3 st4 st5">Q3</text>
<text transform="matrix(1 0 0 1 1679.9531 1252.6602)" class="st3 st4 st5">Q4</text>
</svg>
