<?xml version="1.0" encoding="utf-8"?>
<!-- Generator: Adobe Illustrator 21.1.0, SVG Export Plug-In . SVG Version: 6.00 Build 0)  -->
<svg version="1.1" id="Layer_1" xmlns="http://www.w3.org/2000/svg" xmlns:xlink="http://www.w3.org/1999/xlink" x="0px" y="0px"
	 viewBox="0 0 100 50" style="enable-background:new 0 0 100 50;" xml:space="preserve">
<style type="text/static.css">
	.st0{fill:#444444;}
</style>
<g>
	<polygon class="st0" points="78.5,33.8 78.5,7.4 69.1,13.4 69.1,43.2 89.9,43.2 89.9,33.8 	"/>
	<g>
		<path class="st0" d="M18.5,34.2c-4.8,0-8.7-3.9-8.7-8.7s3.9-8.7,8.7-8.7s8.7,3.9,8.7,8.7C27.3,30.3,23.4,34.2,18.5,34.2
			 M55.8,32.1c-1.5,1.4-3.5,2.2-5.8,2.2c-4.8,0-8.7-3.9-8.7-8.7s3.9-8.7,8.7-8.7c3.1,0,5.8,1.6,7.4,4l7.9-5c-3.2-5-8.9-8.4-15.3-8.4
			c-6.8,0-12.6,3.7-15.8,9.2c-3.1-5.5-9-9.2-15.8-9.2c-10,0-18.1,8.1-18.1,18.1s8.1,18.1,18.1,18.1c6.8,0,12.6-3.7,15.8-9.2
			c3.1,5.5,9,9.2,15.8,9.2c4.6,0,8.7-1.7,11.9-4.5l3.6,4.1h0.6V27H51.4L55.8,32.1z"/>
	</g>
</g>
</svg>
