<?xml version="1.0" encoding="utf-8"?>
<!-- Generator: Adobe Illustrator 21.1.0, SVG Export Plug-In . SVG Version: 6.00 Build 0)  -->
<svg version="1.1" id="Layer_1" xmlns="http://www.w3.org/2000/svg" xmlns:xlink="http://www.w3.org/1999/xlink" x="0px" y="0px"
	 viewBox="0 0 320 200" style="enable-background:new 0 0 320 200;" xml:space="preserve">
<style type="text/static.css">
	.st0{clip-path:url(#SVGID_2_);}
	.st1{clip-path:url(#SVGID_4_);fill:#033C57;}
	.st2{fill:#FFFFFF;}
</style>
<g>
	<defs>
		<rect id="SVGID_1_" x="0" width="320" height="200"/>
	</defs>
	<clipPath id="SVGID_2_">
		<use xlink:href="#SVGID_1_"  style="overflow:visible;"/>
	</clipPath>
	<g class="st0">
		<defs>
			<rect id="SVGID_3_" x="-430" y="-322.7" width="1176" height="838.2"/>
		</defs>
		<clipPath id="SVGID_4_">
			<use xlink:href="#SVGID_3_"  style="overflow:visible;"/>
		</clipPath>
		<rect x="-5" y="-4.5" class="st1" width="330" height="209.1"/>
	</g>
</g>
<path class="st2" d="M160,68.1V43.4H98.2v111.1h123.5V68.1H160z M122.9,142.2h-12.3v-12.4h12.3V142.2z M122.9,117.5h-12.3v-12.3
	h12.3V117.5z M122.9,92.8h-12.3V80.5h12.3V92.8z M122.9,68.1h-12.3V55.8h12.3V68.1z M147.6,142.2h-12.3v-12.4h12.3V142.2z
	 M147.6,117.5h-12.3v-12.3h12.3V117.5z M147.6,92.8h-12.3V80.5h12.3V92.8z M147.6,68.1h-12.3V55.8h12.3V68.1z M209.4,142.2H160
	v-12.4h12.4v-12.3H160v-12.3h12.4V92.8H160V80.5h49.4V142.2z M197.1,92.8h-12.4v12.4h12.4V92.8z M197.1,117.5h-12.4v12.3h12.4V117.5
	z"/>
</svg>
